<svg xmlns="http://www.w3.org/2000/svg" version="1.1" viewBox="30.00 0.00 209.00 219.00" width="307.00" height="219.00">
    <path fill="#1146d5" d="&#10;  M 187.53 181.13&#10;  Q 187.39 181.09 187.37 180.93&#10;  Q 187.30 180.47 187.04 180.85&#10;  Q 186.96 180.96 186.80 180.82&#10;  Q 186.69 180.73 186.77 180.61&#10;  Q 187.39 179.73 186.80 178.70&#10;  Q 186.26 178.49 186.58 178.05&#10;  A 0.55 0.54 -46.9 0 0 186.56 177.37&#10;  Q 186.03 176.73 186.40 176.01&#10;  Q 186.64 175.54 186.50 175.04&#10;  Q 186.19 173.90 186.98 173.03&#10;  A 1.04 1.01 -29.3 0 0 187.23 172.18&#10;  L 186.48 167.73&#10;  Q 186.40 167.24 186.53 166.75&#10;  Q 186.94 165.12 187.39 163.33&#10;  C 187.77 161.76 187.30 160.26 188.00 158.85&#10;  Q 188.19 158.46 188.05 158.04&#10;  Q 187.23 155.70 187.99 153.30&#10;  Q 188.13 152.84 188.50 153.16&#10;  Q 188.59 153.24 188.83 153.14&#10;  Q 189.18 152.98 188.84 152.80&#10;  Q 188.46 152.60 188.77 152.22&#10;  Q 189.32 152.58 189.47 152.56&#10;  A 1.84 1.79 88.3 0 0 191.10 150.78&#10;  Q 191.66 125.99 191.30 100.08&#10;  C 191.29 98.94 190.71 97.84 189.83 97.14&#10;  Q 177.81 87.57 166.06 79.88&#10;  Q 165.72 79.66 165.31 79.65&#10;  Q 164.16 79.61 164.01 77.47&#10;  Q 164.25 71.32 160.12 66.63&#10;  Q 154.17 59.86 146.08 58.01&#10;  Q 145.91 54.88 145.94 51.46&#10;  Q 145.96 48.11 146.74 46.67&#10;  C 148.36 43.66 152.36 42.82 155.45 43.86&#10;  Q 157.17 44.44 158.89 45.74&#10;  Q 162.10 48.17 165.04 50.53&#10;  Q 167.99 52.91 170.87 54.91&#10;  C 174.15 57.19 177.18 59.85 180.41 62.21&#10;  Q 191.55 70.37 205.14 80.83&#10;  C 208.02 83.05 210.51 85.36 210.81 89.12&#10;  Q 211.11 93.06 211.12 97.46&#10;  Q 211.15 123.06 211.10 148.42&#10;  C 211.10 152.71 211.83 159.88 208.96 163.92&#10;  Q 206.85 166.88 202.57 170.11&#10;  Q 195.13 175.71 187.53 181.13&#10;  Z"/>
    <path fill="#2574ea" d="&#10;  M 147.15 70.11&#10;  Q 145.41 69.73 147.88 72.39&#10;  Q 148.36 72.90 147.80 72.49&#10;  Q 147.62 72.36 147.50 72.24&#10;  Q 146.97 71.74 146.96 72.47&#10;  Q 146.90 75.68 146.87 78.89&#10;  Q 146.87 79.02 146.92 79.14&#10;  Q 146.98 79.29 147.22 79.23&#10;  Q 147.45 79.17 147.35 79.39&#10;  Q 146.30 81.69 147.01 84.15&#10;  Q 147.04 84.25 147.15 84.26&#10;  Q 147.22 84.27 147.27 84.21&#10;  Q 147.50 83.98 147.44 84.30&#10;  Q 147.34 84.83 146.73 84.68&#10;  Q 146.16 84.55 146.12 85.12&#10;  Q 146.06 85.95 145.41 86.56&#10;  Q 144.81 87.10 144.81 87.91&#10;  Q 144.82 89.25 144.03 90.34&#10;  Q 143.90 90.52 144.10 90.63&#10;  Q 144.22 90.70 144.32 90.80&#10;  Q 144.67 91.10 144.69 91.57&#10;  Q 144.81 93.82 145.59 95.54&#10;  A 0.10 0.10 0.0 0 1 145.53 95.68&#10;  Q 144.81 95.87 145.26 96.44&#10;  Q 145.50 96.75 145.78 97.04&#10;  Q 146.75 98.02 147.05 99.39&#10;  Q 147.16 99.92 147.64 100.17&#10;  Q 147.94 100.32 148.07 100.63&#10;  Q 148.80 102.42 149.94 103.99&#10;  Q 150.26 104.44 150.30 104.99&#10;  Q 150.37 105.87 150.66 106.68&#10;  Q 150.72 106.84 150.88 106.79&#10;  Q 150.93 106.77 150.96 106.73&#10;  Q 151.41 106.19 151.32 106.88&#10;  Q 151.03 109.01 151.33 111.12&#10;  Q 151.41 111.71 151.68 112.25&#10;  Q 152.12 113.16 151.51 114.05&#10;  Q 151.28 114.38 151.27 114.78&#10;  Q 151.18 117.96 151.70 120.34&#10;  Q 152.20 122.55 152.05 124.69&#10;  Q 151.85 127.77 152.68 130.64&#10;  Q 152.93 131.49 152.86 132.38&#10;  C 152.74 134.02 152.47 134.99 152.93 136.71&#10;  Q 153.21 137.73 153.14 138.85&#10;  Q 153.07 139.98 153.22 141.13&#10;  Q 153.68 144.70 153.57 148.14&#10;  Q 153.55 148.67 153.12 148.98&#10;  L 150.77 150.71&#10;  Q 150.46 150.93 150.75 151.18&#10;  L 151.16 151.52&#10;  Q 151.30 151.65 151.45 151.52&#10;  Q 153.16 150.11 155.12 149.82&#10;  Q 155.66 149.74 155.57 150.27&#10;  Q 155.42 151.26 155.00 152.02&#10;  Q 154.66 152.63 155.27 152.97&#10;  Q 156.28 153.55 156.20 154.88&#10;  Q 156.09 156.85 156.08 158.76&#10;  A 0.62 0.61 13.3 0 0 156.42 159.31&#10;  Q 156.72 159.45 156.78 159.74&#10;  Q 157.35 162.23 156.09 164.31&#10;  Q 155.82 164.75 155.91 165.26&#10;  Q 156.48 168.56 156.04 171.95&#10;  Q 155.54 175.76 155.44 179.44&#10;  Q 155.43 179.81 155.12 180.00&#10;  Q 154.82 180.18 154.83 180.53&#10;  Q 154.84 180.80 155.05 180.98&#10;  Q 155.17 181.09 155.25 181.23&#10;  Q 155.67 182.09 154.79 181.31&#10;  Q 154.36 180.92 154.11 180.40&#10;  Q 153.86 179.86 153.28 180.00&#10;  Q 152.52 180.18 152.57 181.24&#10;  L 138.00 170.76&#10;  Q 138.80 170.43 137.50 169.32&#10;  Q 137.12 169.00 137.22 168.51&#10;  Q 137.46 167.44 137.89 166.44&#10;  Q 138.32 165.46 138.34 164.41&#10;  Q 138.39 161.31 137.66 157.84&#10;  Q 137.59 157.48 137.78 157.17&#10;  Q 137.83 157.10 137.91 157.06&#10;  Q 138.65 156.77 137.96 156.37&#10;  Q 136.98 155.81 137.21 154.94&#10;  Q 140.89 158.56 144.46 156.64&#10;  Q 147.50 153.56 147.49 151.25&#10;  Q 147.32 126.23 147.26 101.20&#10;  Q 147.26 100.63 146.85 100.23&#10;  C 146.04 99.44 145.64 98.72 144.71 97.99&#10;  Q 134.81 90.38 124.18 83.71&#10;  L 105.84 72.04&#10;  Q 106.54 68.96 109.18 67.15&#10;  Q 112.09 65.15 123.30 56.80&#10;  C 128.23 53.12 132.54 60.69 137.01 62.40&#10;  A 2.03 1.92 -9.2 0 1 137.76 62.91&#10;  Q 140.40 65.85 143.57 66.78&#10;  Q 143.83 66.86 143.68 67.08&#10;  Q 143.57 67.25 143.67 67.38&#10;  Q 143.77 67.51 143.90 67.59&#10;  Q 145.70 68.75 147.15 70.11&#10;  Z"/>
    <path fill="#1544a1" d="&#10;  M 146.08 58.01&#10;  Q 154.17 59.86 160.12 66.63&#10;  Q 164.25 71.32 164.01 77.47&#10;  L 163.76 76.87&#10;  A 0.35 0.35 0.0 0 0 163.17 76.78&#10;  Q 163.05 76.91 162.89 76.93&#10;  Q 162.45 76.96 162.15 76.65&#10;  Q 161.52 76.02 160.70 75.67&#10;  Q 160.22 75.46 159.98 75.00&#10;  Q 159.57 74.21 158.65 74.17&#10;  Q 158.11 74.14 157.63 73.87&#10;  Q 155.70 72.75 153.84 71.38&#10;  A 2.42 1.34 23.4 0 0 153.55 71.21&#10;  Q 149.38 69.11 146.53 65.86&#10;  Q 146.19 65.48 146.18 64.96&#10;  L 146.08 58.01&#10;  Z"/>
    <path fill="#1859db" d="&#10;  M 147.15 70.11&#10;  L 151.47 72.48&#10;  Q 151.80 72.67 151.88 73.04&#10;  Q 152.07 73.85 152.93 74.10&#10;  A 1.74 1.69 78.0 0 1 153.78 74.67&#10;  Q 154.72 75.84 156.25 76.50&#10;  Q 156.36 77.13 156.76 77.49&#10;  Q 157.01 77.72 157.53 77.42&#10;  L 159.26 78.35&#10;  Q 159.69 78.58 159.90 79.03&#10;  C 160.27 79.86 161.11 79.97 161.71 80.60&#10;  Q 163.50 82.50 165.31 84.47&#10;  Q 165.74 84.93 165.89 85.57&#10;  Q 166.22 86.89 167.13 87.93&#10;  Q 169.42 90.56 169.43 92.50&#10;  Q 169.49 111.26 169.33 131.00&#10;  Q 169.31 133.02 169.52 135.20&#10;  Q 169.70 136.99 171.35 138.78&#10;  Q 174.29 141.97 177.20 143.81&#10;  Q 183.88 148.06 188.77 152.22&#10;  Q 188.46 152.60 188.84 152.80&#10;  Q 189.18 152.98 188.83 153.14&#10;  Q 188.59 153.24 188.50 153.16&#10;  Q 188.13 152.84 187.99 153.30&#10;  Q 187.23 155.70 188.05 158.04&#10;  Q 188.19 158.46 188.00 158.85&#10;  C 187.30 160.26 187.77 161.76 187.39 163.33&#10;  Q 186.94 165.12 186.53 166.75&#10;  Q 186.40 167.24 186.48 167.73&#10;  L 187.23 172.18&#10;  A 1.04 1.01 -29.3 0 1 186.98 173.03&#10;  Q 186.19 173.90 186.50 175.04&#10;  Q 186.64 175.54 186.40 176.01&#10;  Q 186.03 176.73 186.56 177.37&#10;  A 0.55 0.54 -46.9 0 1 186.58 178.05&#10;  Q 186.26 178.49 186.80 178.70&#10;  Q 187.39 179.73 186.77 180.61&#10;  Q 186.69 180.73 186.80 180.82&#10;  Q 186.96 180.96 187.04 180.85&#10;  Q 187.30 180.47 187.37 180.93&#10;  Q 187.39 181.09 187.53 181.13&#10;  Q 181.91 185.65 175.88 189.63&#10;  C 172.35 191.95 167.68 190.27 164.27 188.65&#10;  Q 159.34 186.29 158.09 185.17&#10;  Q 155.51 182.86 152.57 181.24&#10;  Q 152.52 180.18 153.28 180.00&#10;  Q 153.86 179.86 154.11 180.40&#10;  Q 154.36 180.92 154.79 181.31&#10;  Q 155.67 182.09 155.25 181.23&#10;  Q 155.17 181.09 155.05 180.98&#10;  Q 154.84 180.80 154.83 180.53&#10;  Q 154.82 180.18 155.12 180.00&#10;  Q 155.43 179.81 155.44 179.44&#10;  Q 155.54 175.76 156.04 171.95&#10;  Q 156.48 168.56 155.91 165.26&#10;  Q 155.82 164.75 156.09 164.31&#10;  Q 157.35 162.23 156.78 159.74&#10;  Q 156.72 159.45 156.42 159.31&#10;  A 0.62 0.61 13.3 0 1 156.08 158.76&#10;  Q 156.09 156.85 156.20 154.88&#10;  Q 156.28 153.55 155.27 152.97&#10;  Q 154.66 152.63 155.00 152.02&#10;  Q 155.42 151.26 155.57 150.27&#10;  Q 155.66 149.74 155.12 149.82&#10;  Q 153.16 150.11 151.45 151.52&#10;  Q 151.30 151.65 151.16 151.52&#10;  L 150.75 151.18&#10;  Q 150.46 150.93 150.77 150.71&#10;  L 153.12 148.98&#10;  Q 153.55 148.67 153.57 148.14&#10;  Q 153.68 144.70 153.22 141.13&#10;  Q 153.07 139.98 153.14 138.85&#10;  Q 153.21 137.73 152.93 136.71&#10;  C 152.47 134.99 152.74 134.02 152.86 132.38&#10;  Q 152.93 131.49 152.68 130.64&#10;  Q 151.85 127.77 152.05 124.69&#10;  Q 152.20 122.55 151.70 120.34&#10;  Q 151.18 117.96 151.27 114.78&#10;  Q 151.28 114.38 151.51 114.05&#10;  Q 152.12 113.16 151.68 112.25&#10;  Q 151.41 111.71 151.33 111.12&#10;  Q 151.03 109.01 151.32 106.88&#10;  Q 151.41 106.19 150.96 106.73&#10;  Q 150.93 106.77 150.88 106.79&#10;  Q 150.72 106.84 150.66 106.68&#10;  Q 150.37 105.87 150.30 104.99&#10;  Q 150.26 104.44 149.94 103.99&#10;  Q 148.80 102.42 148.07 100.63&#10;  Q 147.94 100.32 147.64 100.17&#10;  Q 147.16 99.92 147.05 99.39&#10;  Q 146.75 98.02 145.78 97.04&#10;  Q 145.50 96.75 145.26 96.44&#10;  Q 144.81 95.87 145.53 95.68&#10;  A 0.10 0.10 0.0 0 0 145.59 95.54&#10;  Q 144.81 93.82 144.69 91.57&#10;  Q 144.67 91.10 144.32 90.80&#10;  Q 144.22 90.70 144.10 90.63&#10;  Q 143.90 90.52 144.03 90.34&#10;  Q 144.82 89.25 144.81 87.91&#10;  Q 144.81 87.10 145.41 86.56&#10;  Q 146.06 85.95 146.12 85.12&#10;  Q 146.16 84.55 146.73 84.68&#10;  Q 147.34 84.83 147.44 84.30&#10;  Q 147.50 83.98 147.27 84.21&#10;  Q 147.22 84.27 147.15 84.26&#10;  Q 147.04 84.25 147.01 84.15&#10;  Q 146.30 81.69 147.35 79.39&#10;  Q 147.45 79.17 147.22 79.23&#10;  Q 146.98 79.29 146.92 79.14&#10;  Q 146.87 79.02 146.87 78.89&#10;  Q 146.90 75.68 146.96 72.47&#10;  Q 146.97 71.74 147.50 72.24&#10;  Q 147.62 72.36 147.80 72.49&#10;  Q 148.36 72.90 147.88 72.39&#10;  Q 145.41 69.73 147.15 70.11&#10;  Z"/>
    <path fill="#3d9ffa" d="&#10;  M 105.84 72.04&#10;  L 124.18 83.71&#10;  Q 123.28 83.57 124.20 84.86&#10;  Q 124.49 85.27 124.49 85.77&#10;  Q 124.43 109.01 124.50 132.25&#10;  Q 124.51 136.04 126.18 137.53&#10;  C 127.26 138.50 128.19 140.21 129.70 140.33&#10;  L 129.47 141.51&#10;  Q 129.38 142.00 129.58 142.47&#10;  Q 132.51 149.34 137.21 154.94&#10;  Q 136.98 155.81 137.96 156.37&#10;  Q 138.65 156.77 137.91 157.06&#10;  Q 137.83 157.10 137.78 157.17&#10;  Q 137.59 157.48 137.66 157.84&#10;  Q 138.39 161.31 138.34 164.41&#10;  Q 138.32 165.46 137.89 166.44&#10;  Q 137.46 167.44 137.22 168.51&#10;  Q 137.12 169.00 137.50 169.32&#10;  Q 138.80 170.43 138.00 170.76&#10;  Q 117.85 156.47 108.35 149.39&#10;  C 105.57 147.32 104.46 144.49 104.46 140.83&#10;  Q 104.48 109.16 104.51 77.50&#10;  Q 104.51 75.86 105.84 72.04&#10;  Z"/>
    <path fill="#1544a1" d="&#10;  M 157.53 77.42&#10;  Q 157.01 77.72 156.76 77.49&#10;  Q 156.36 77.13 156.25 76.50&#10;  L 157.41 76.44&#10;  Q 157.85 76.41 157.56 76.75&#10;  Q 157.29 77.05 157.53 77.42&#10;  Z"/>
    <path fill="#2b292a" d="&#10;  M 124.18 83.71&#10;  Q 134.81 90.38 144.71 97.99&#10;  C 145.64 98.72 146.04 99.44 146.85 100.23&#10;  Q 147.26 100.63 147.26 101.20&#10;  Q 147.32 126.23 147.49 151.25&#10;  Q 147.50 153.56 144.46 156.64&#10;  Q 144.09 156.36 144.08 155.88&#10;  Q 144.07 155.49 144.30 155.13&#10;  Q 144.79 154.35 144.67 153.28&#10;  Q 144.41 150.97 144.08 148.91&#10;  A 0.89 0.88 -84.3 0 0 143.52 148.22&#10;  L 142.49 147.85&#10;  Q 141.93 147.65 141.93 147.05&#10;  Q 141.93 146.48 141.40 146.43&#10;  A 5.41 4.89 68.5 0 1 138.28 144.88&#10;  Q 137.53 144.12 136.51 143.80&#10;  Q 136.13 143.69 135.88 143.39&#10;  Q 135.73 143.20 135.80 142.96&#10;  A 0.23 0.23 0.0 0 0 135.64 142.67&#10;  L 132.78 141.85&#10;  Q 132.31 141.72 132.07 141.29&#10;  Q 131.47 140.23 129.70 140.33&#10;  C 128.19 140.21 127.26 138.50 126.18 137.53&#10;  Q 124.51 136.04 124.50 132.25&#10;  Q 124.43 109.01 124.49 85.77&#10;  Q 124.49 85.27 124.20 84.86&#10;  Q 123.28 83.57 124.18 83.71&#10;  Z"/>
    <path fill="#1544a1" d="&#10;  M 129.70 140.33&#10;  Q 131.47 140.23 132.07 141.29&#10;  Q 132.31 141.72 132.78 141.85&#10;  L 135.64 142.67&#10;  A 0.23 0.23 0.0 0 1 135.80 142.96&#10;  Q 135.73 143.20 135.88 143.39&#10;  Q 136.13 143.69 136.51 143.80&#10;  Q 137.53 144.12 138.28 144.88&#10;  A 5.41 4.89 68.5 0 0 141.40 146.43&#10;  Q 141.93 146.48 141.93 147.05&#10;  Q 141.93 147.65 142.49 147.85&#10;  L 143.52 148.22&#10;  A 0.89 0.88 -84.3 0 1 144.08 148.91&#10;  Q 144.41 150.97 144.67 153.28&#10;  Q 144.79 154.35 144.30 155.13&#10;  Q 144.07 155.49 144.08 155.88&#10;  Q 144.09 156.36 144.46 156.64&#10;  Q 140.89 158.56 137.21 154.94&#10;  Q 132.51 149.34 129.58 142.47&#10;  Q 129.38 142.00 129.47 141.51&#10;  L 129.70 140.33&#10;  Z"/>
</svg>